<svg xmlns="http://www.w3.org/2000/svg" version="1.1" xmlns:xlink="http://www.w3.org/1999/xlink" xmlns:svgjs="http://svgjs.dev/svgjs" viewBox="0 0 8.54637451171875 9.289710283123346"><g transform="matrix(0.8571428571428572,0,0,0.8571428571428572,1.2209106445312492,6.774989940634626)"><g clip-path="url(#SvgjsClipPath22768)"><g clip-path="url(#a7102f7da-c13e-4571-a173-36adc8ad35d2da4323a9-4aa3-4b76-af34-ccfce3999f24)"><path d=" M 3.783746268361699 -3.657944069885658 L 3.7754100948020493 -3.649898693078089 L 3.7700788210139007 -3.639817739005954 C 3.7263623759510867 -3.5548081551476653 3.7314997852378475 -3.4181336816696866 3.816218572344056 -3.345531425900179 L 3.86235832367421 -3.305983067617189 L 3.924976557622277 -3.3618160440167038 C 4.17990837694645 -3.5891221718932007 4.468863416264078 -3.8467680942367943 4.477781183327888 -4.1827352751408196 C 4.483209389366731 -4.404419332477087 4.285467597951783 -4.645974501205543 3.986043875559246 -5.011506018571116 C 3.8892085571163375 -5.12976336441731 3.7794812493311802 -5.263723734875867 3.665779719267585 -5.410963823679449 L 3.6109160653750063 -5.482112095688554 L 3.5560524114824275 -5.410866891428756 C 3.447981872617201 -5.27184423794625 3.3375601450090238 -5.134665357730651 3.2248349108623726 -4.999389487234395 C 2.927349833483725 -4.638704582403523 2.7307712290771007 -4.400348177947956 2.745989592435996 -4.17953651086793 C 2.7726459613767367 -3.8098369067225324 2.9975287829858934 -3.486180121656595 3.332817438135063 -3.3348688783238827 L 3.372947389922214 -3.316742547444179 L 3.4063890164115067 -3.3454344936494853 C 3.4911078035177145 -3.4181336816696866 3.496342145055169 -3.5548081551476653 3.452528767741661 -3.6398177390059545 L 3.4472944262042065 -3.6499956253287826 L 3.4389582526445563 -3.657944069885658 C 3.295595453868719 -3.795490933619879 3.2302631169012317 -3.934491781114504 3.2449968190066594 -4.071263186843177 C 3.2601182501148607 -4.21210574710098 3.3579228910647054 -4.319022019616023 3.4436110006778495 -4.371753163993343 C 3.4859703942309537 -4.3968586169229855 3.54238496413463 -4.410622996521477 3.602482959564663 -4.410622996521477 C 3.666652109523828 -4.410622996521477 3.7323721754940897 -4.395016904159807 3.7878174228908303 -4.366421890205194 C 3.8714699552394087 -4.311752100814003 3.964718780406654 -4.205223557301734 3.977998498751677 -4.068355219322369 C 3.9911812848460073 -3.932553136100632 3.9258489478785195 -3.7944246788622493 3.783746268361699 -3.657944069885658 M 3.889402421617725 -3.5674093477378337 C 4.097709828358275 -3.7722271934534146 4.1277588260732925 -3.959694166294841 4.115933091488673 -4.081731869918086 C 4.100423931377696 -4.241088490058367 4.004848732193805 -4.3916242753855315 3.860128881908257 -4.484679236051389 L 3.854894540370803 -4.487781068073584 C 3.778318062322857 -4.528007952111429 3.691079036698615 -4.549236115013328 3.6024829595646635 -4.549236115013328 C 3.5166979177008253 -4.549236115013328 3.4373104043827656 -4.529074206869058 3.3719780674152777 -4.4903013065916175 C 3.25740414709544 -4.419928492588063 3.127611863416707 -4.276759558313612 3.107159158520357 -4.085996888948604 C 3.0939763724260274 -3.9629898628184232 3.122959115383414 -3.773875041715206 3.333302099388531 -3.5674093477378337 C 3.342413730953729 -3.5433701495658205 3.3430922567085846 -3.5125456938452553 3.336500863661419 -3.487537173166306 C 3.075470144428758 -3.6284909888142898 2.9047915955723385 -3.893287820184119 2.8842149819250724 -4.189229735937291 C 2.872873908593921 -4.354790020121962 3.0653813584714147 -4.588202879792156 3.331751183377433 -4.911278071353931 C 3.4170515639878025 -5.014704782844005 3.5120451696675326 -5.12976336441731 3.6109160653750063 -5.255775290318993 C 3.706103535556124 -5.13460997695199 3.797025986706722 -5.023525617657122 3.8788368062921226 -4.9236853994427126 C 4.148599259972417 -4.594309611585853 4.343433083866557 -4.356437868383754 4.339168064836038 -4.186321768416482 C 4.332479739538179 -3.929742100830518 4.102750305394343 -3.707379517739395 3.8824232995677854 -3.5097346585751406 C 3.8806785190553006 -3.5293149732152482 3.8828110285705604 -3.5501554071143726 3.889402421617725 -3.5674093477378337 M 5.610046803679854 -2.1348476147370903 C 5.500901089398858 -2.342185698970705 5.328555547665633 -2.5088122379130064 5.132267740011089 -2.6335640445556723 C 4.912231530936612 -2.7733403500558462 4.666605207679026 -2.8557327631454084 4.415066017129129 -2.9169939455837643 C 4.415066017129129 -2.919611116352492 4.412448846360402 -2.922131354870525 4.408280759580577 -2.924651593388559 C 4.44337023433166 -3.17871102245649 4.575101163024265 -3.4059202180822927 4.576942875787443 -3.4091189823551815 C 4.57883021349614 -3.41237537371822 4.580451036910274 -3.4157791028879014 4.581789488322125 -3.4192968686780096 C 4.753068775297718 -3.669091278715422 4.8754942079237376 -3.9237323012875143 4.8590157253058255 -4.214722917869707 L 4.858724928553745 -4.218794072398838 C 4.823441589301273 -4.51889632054623 4.576555146784669 -4.777705429898147 4.337811013326328 -5.027984501189028 C 4.254837006732604 -5.1150296623118825 4.176321883670787 -5.197228210900057 4.110117156447057 -5.278166640229214 C 4.082394532748687 -5.311802131219895 4.052733264036444 -5.34475909645572 4.024041317831138 -5.376649806933914 C 3.9273998638896166 -5.484147672953119 3.836089683736244 -5.585538807178627 3.8500479278361226 -5.677721377588242 C 3.8883361668600953 -5.924607820104846 3.754666593153618 -6.303322123564749 3.6880741369271135 -6.381061788621018 C 3.675569876587639 -6.395601626225058 3.661902429239841 -6.405488715795806 3.6470717948837197 -6.4108199895839535 C 3.618167059852248 -6.422446296562702 3.585415249617114 -6.419301255182508 3.5592511757553167 -6.40238688377361 C 3.5497668366088506 -6.396471772001554 3.54129102232524 -6.389075887723191 3.534145722825674 -6.380480195116856 C 3.4677471311005568 -6.303031326812668 3.3344652863968536 -5.924898616856927 3.3727535254208263 -5.678109106591016 C 3.386711769520705 -5.585538807178627 3.2953046571166382 -5.484147672953119 3.1986632031751174 -5.376649806933914 C 3.169971256969811 -5.34475909645572 3.140309988257569 -5.311802131219895 3.1124904323085048 -5.277972775727827 C 3.0465765018368556 -5.197519007652138 2.968449107777812 -5.115611255816044 2.8858628301868636 -5.0286630269438835 C 2.6474094934806027 -4.77828702340231 2.4008138477160794 -4.519284049549006 2.3648519827087533 -4.218987936900226 L 2.364464253705979 -4.214625985619014 C 2.35996641901664 -4.13244573131727 2.366255926826331 -4.050030367323955 2.383172178089844 -3.969484323614895 C 2.3788572467566618 -3.956731236611733 2.377823829006585 -3.9430967895220097 2.3801672783183423 -3.929839033081212 C 2.4145782273145704 -3.7410150087300753 2.5289582831330213 -3.5675062799885278 2.7568460045136796 -3.2217489417644494 L 2.7670238908365077 -3.206239781653473 C 2.8572678162322513 -3.069371443674107 2.8824702014125876 -2.9180602003413942 2.882082472409813 -2.7909820196820827 C 2.5071485267269606 -2.7632593959837117 2.232151731509212 -2.627748109514057 2.179808316134667 -2.6002193503170736 C 2.101058337385476 -2.562905794300527 2.0265971713931235 -2.517143541259395 1.9577365297956266 -2.4637387413404834 C 1.6182797878666308 -2.1999860872031913 1.431588273030753 -1.7766829484242317 1.3471602826766258 -1.3654963409819718 C 1.3453907232816256 -1.3568267937000016 1.3448361226144372 -1.3479531830249938 1.3455124344148353 -1.3391307687933116 C 1.3410535508829293 -1.302102649028356 1.3589860172612451 -1.2660438517703358 1.407355210357353 -1.2593555264724774 C 1.818251021047532 -1.2025532275660273 2.213928468378815 -1.3213921669163833 2.5145153777796745 -1.610153341732623 C 2.769931858357316 -1.8554888682381296 2.9706785495437655 -2.2971122023981803 3.0405667022938525 -2.6432572696250327 L 3.039209650784142 -2.64936400141873 C 3.167063289449003 -2.6500425271735852 3.279407768002888 -2.64102782785908 3.351719227020315 -2.6272634482605883 C 3.3545302622904294 -2.6267787870071206 3.3409597471933252 -2.611851220400306 3.34377078246344 -2.6113665591468376 C 3.2784384454959516 -2.4823497334736535 3.190423961866161 -2.3454813954942875 3.142733294524909 -2.1669321897166727 C 3.063733510209624 -1.8715796218532672 3.034944631753624 -1.571186576953794 3.088451234136492 -1.290083049942349 C 3.155334487115077 -0.9392852346822043 3.349877514257136 -0.582380687628361 3.6197369001881246 -0.2767533011914347 C 3.634210443950614 -0.2603396255395092 3.6548573160364293 -0.25068335032930644 3.6767330635959623 -0.2500969322506945 L 3.6788655731112216 -0.2500000000000009 C 3.7000937360131205 -0.2500000000000009 3.720352576408083 -0.25853003806103736 3.7351832107642045 -0.2735545369185468 C 3.7371218557780765 -0.2755901141831121 3.7432285875717732 -0.28198764272888965 3.7524371513876655 -0.29235939355310503 L 3.7563144414154097 -0.2940072418148958 L 3.7541819319001504 -0.29429803856697667 C 3.85159884384722 -0.40392841410143987 4.27625903413589 -0.9215466328052742 4.270443099094274 -1.5535449073275593 C 4.266953538069305 -1.9371058233221419 4.117774804251852 -2.332007812647877 3.8059437537705336 -2.595954331286555 C 3.802744989497645 -2.598668434305975 3.7997400897261433 -2.601673334077477 3.7962505287011736 -2.6039997080941237 C 3.7935364256817525 -2.606035285358689 3.7489475903626954 -2.641609421363241 3.694083936470117 -2.6751479801032274 C 3.8336148497783786 -2.7143304898715326 3.9301074647343963 -2.8414695077721372 3.930307831410425 -2.986397437080383 C 3.930094185114321 -3.164791902498228 3.7855301730157684 -3.3093559145967664 3.6071357075979398 -3.3095695608928524 C 3.42870338896246 -3.309409324278023 3.284080399107966 -3.1648296996378784 3.2838666515347934 -2.986397437080383 C 3.2838666515347934 -2.8999338694616905 3.318083736029635 -2.821418746399873 3.373625915677069 -2.763356328234405 C 3.263997049058003 -2.7840202110368013 3.1524714378725633 -2.7928915664720058 3.040954431296628 -2.7898188326737583 C 3.0410513635473206 -2.8129856405895293 3.0403728377924653 -2.8368309742601556 3.0388219217813672 -2.861257901434943 L 3.0388219217813672 -2.8619364271897987 L 3.038724989530674 -2.8619364271897987 C 3.0300980192189435 -2.9975446459101476 2.993360696206068 -3.1500190762511835 2.8990456162811933 -3.2931880105256335 L 2.8887707977076715 -3.3086971706366097 C 2.672708810911633 -3.6365220424823717 2.5642416223854925 -3.801016071909414 2.5356466084308797 -3.958143250283743 C 2.5332971571083847 -3.9711169720422794 2.5277687508086695 -3.9833061088235784 2.5195558548157413 -3.9936204540376012 C 2.5047058171568217 -4.0628844094511525 2.499035066172702 -4.133801387275542 2.502689643195055 -4.204545031546879 C 2.5341926246704753 -4.458410596113422 2.764018991065006 -4.699771900340492 2.9861877096547413 -4.933184760010685 C 3.0707126322595624 -5.021877769395331 3.1504878745803966 -5.105821098495991 3.2196005693249354 -5.190055224348731 C 3.2453845480094334 -5.221461273573457 3.2739795619640457 -5.253158119550266 3.301702185662416 -5.283982575270831 C 3.415694512478092 -5.410576094676675 3.5334671970708182 -5.541531565363731 3.509718795650886 -5.699046472740834 C 3.483353223462226 -5.869162572708105 3.561480617521269 -6.1268084950517 3.611206862127087 -6.239056041354891 C 3.6613208357356792 -6.126420766048926 3.7394482297947222 -5.869162572708106 3.712985725355369 -5.698755675988754 C 3.6892373239354366 -5.541531565363731 3.8071069407788567 -5.410576094676675 3.9210992675945326 -5.283982575270831 C 3.9488218912929027 -5.253158119550266 3.977319972996822 -5.221364341322764 4.003007019430626 -5.190249088850118 C 4.072410510927245 -5.105433369493216 4.152670414501548 -5.02129617589117 4.237583066109143 -4.9323123697544435 C 4.459945649200266 -4.69919030683633 4.68986894784549 -4.458022867110649 4.720790335816749 -4.204641963797574 C 4.733488460657611 -3.9704536461218307 4.628123104153666 -3.759335204111166 4.4989124139790935 -3.545696523582467 C 4.496756468884423 -3.5428967444153994 4.494750390154573 -3.539984694646262 4.49290261443609 -3.5369726210200425 C 4.4392021475518355 -3.452641562916609 4.181653157458935 -3.0502757902874675 4.282753494932361 -2.5530133442292895 C 4.314450340909169 -2.359730436346247 4.376002320099607 -2.1850585205963764 4.482240066859795 -2.0041829408021155 C 4.723698303337557 -1.593384062362631 5.142833355336691 -1.3351565465148747 5.600935172114656 -1.2312451737713328 C 5.622357199517941 -1.2264954934873469 5.6438761591719215 -1.2221335422061346 5.665588983327288 -1.217868523175616 C 5.685486066365528 -1.2135966808437582 5.706252326062976 -1.2164799301240645 5.724232994996917 -1.2260108322338779 C 5.754496284061474 -1.2387949686703106 5.7743200055645465 -1.2682832300232496 5.774734697608284 -1.3011333265214198 C 5.787626686950532 -1.5888282465800305 5.745267293397429 -1.8778802181483512 5.610046803679854 -2.1348476147370903 M 2.8637622770287225 -2.6029334533364943 C 2.7919354792647635 -2.304479053450893 2.6142586637433913 -1.9521303221796504 2.4006199832146926 -1.7399456254113552 C 2.172235599889002 -1.5129847456355021 1.8571149822387367 -1.3954635826579844 1.5358873747770694 -1.4174520273537423 C 1.6189583136214862 -1.7556486500237192 1.772886727722926 -2.0774637223264785 2.0401289428851865 -2.3091318014841864 C 2.0865594909674217 -2.3494556177727253 2.138030516085725 -2.3887131793036334 2.1928941699783033 -2.4253535700658158 L 2.194638950490788 -2.425159705564428 C 2.194638950490788 -2.425159705564428 2.4181647205902346 -2.5780218649082385 2.728444855060454 -2.6284266352689114 C 2.7757477933989323 -2.6347272315639954 2.823438460740184 -2.6395738440986762 2.8705475345772746 -2.642869540622258 C 2.8685716874676626 -2.629510511918155 2.866309414260553 -2.616195418184884 2.863762277028723 -2.6029334533364983 M 3.3238027388205573 -2.986397437080383 C 3.3239630266013807 -3.142811473377851 3.4507216713005047 -3.2695701180769685 3.6071357075979646 -3.2697304058577816 C 3.7635118881715246 -3.269516713018633 3.8902115589715875 -3.142773681619391 3.890371744124661 -2.986397437080383 C 3.890163918235666 -2.842906972608683 3.7828563329390232 -2.7221599340158535 3.640383469585884 -2.705100045567553 C 3.6269905029570415 -2.7118988160475443 3.61320129889956 -2.7178870854152297 3.5990903307903857 -2.723032511945868 C 3.6262313609845953 -2.767233618262149 3.6484288463934305 -2.801547635007685 3.665391990264811 -2.8272346814414893 C 3.7433422219691472 -2.851946264055776 3.7947618219311336 -2.926190910303064 3.7904823164394523 -3.007852325737828 C 3.7862028109477706 -3.089513741172592 3.72730452843065 -3.1579771260813825 3.647198327909019 -3.174405685849378 C 3.5670921273873875 -3.1908342456173733 3.486000206465425 -3.1510807159901577 3.4499230701132446 -3.077695832187779 C 3.4138459337610643 -3.0043109483854007 3.4318909791034335 -2.915820163016371 3.493821906537135 -2.8624210884432664 C 3.47230577763347 -2.83019396939479 3.451620090421647 -2.797420083718559 3.431785266093226 -2.7641317862399477 C 3.363631237081337 -2.8177572586949333 3.323833099951093 -2.899675686378639 3.3238027388205573 -2.986397437080383 M 3.519218156218859 -2.587424293225518 C 3.6150841521548314 -2.5714304718610737 3.6956348524812146 -2.4761460694292627 3.7007722617679755 -2.4778908499417476 C 3.986431604562021 -2.196399593927527 4.109050901689427 -1.8906752752399072 4.112443530463703 -1.5532541105754785 C 4.117484007499771 -1.0514358487347009 3.8121474178149244 -0.6073892083073114 3.6801256923702383 -0.44938963967674006 C 3.272622510454336 -0.945391966475901 3.1374020207367606 -1.5284394543979163 3.293947605606928 -2.1205985738851307 C 3.342219866452342 -2.3031220019411833 3.4523349032402737 -2.4598614513127375 3.519218156218859 -2.587424293225518 M 4.618720675836387 -2.112650129328255 C 4.500851058992966 -2.30816247897725 4.437069638036576 -2.4916552295402385 4.423692987440859 -2.737184620547133 C 4.465955448743269 -2.726328208469449 4.508024045544293 -2.7147932706369113 4.549801845593235 -2.7021920780467426 C 4.975916019642309 -2.574047642629801 5.375955418254804 -2.3294875741298435 5.529689967854858 -1.8903844784878263 C 5.584068960493968 -1.7350990128766766 5.60403700413685 -1.5718651027086503 5.604521665390319 -1.4082434635378496 C 5.195952228716786 -1.5110885815237616 4.8414709879302835 -1.7435321186870194 4.618720675836386 -2.112650129328255" fill="#8fb0a1" transform="matrix(1,0,0,1,0,0)" fill-rule="nonzero"></path></g><g clip-path="url(#b7102f7da-c13e-4571-a173-36adc8ad35d2da4323a9-4aa3-4b76-af34-ccfce3999f24)"><path d=" M -3.856744528060089 -8.046454787787793 L 10.978736440595696 -8.046454787787793 L 10.978736440595696 34.54072955444624 L -3.856744528060089 34.54072955444624 Z" fill="none" transform="matrix(1,0,0,1,0,0)" fill-rule="nonzero" stroke-dasharray="none" stroke-miterlimit="10" stroke-linejoin="miter" stroke-linecap="butt" stroke-width="0.09693225069360198" stroke="#0994dc"></path></g><g clip-path="url(#b7102f7da-c13e-4571-a173-36adc8ad35d2da4323a9-4aa3-4b76-af34-ccfce3999f24)"><path d=" M -3.444782462612281 -7.634492722339985 L 10.566774375147887 -7.634492722339985 L 10.566774375147887 34.12876748899843 L -3.444782462612281 34.12876748899843 Z" fill="none" transform="matrix(1,0,0,1,0,0)" fill-rule="nonzero" stroke-dasharray="none" stroke-miterlimit="10" stroke-linejoin="miter" stroke-linecap="butt" stroke-width="0.09693225069360198" stroke="#741473"></path></g><g clip-path="url(#b7102f7da-c13e-4571-a173-36adc8ad35d2da4323a9-4aa3-4b76-af34-ccfce3999f24)"><path d=" M -2.6208583317166636 -6.810568591444368 L 9.742850244252267 -6.810568591444368 L 9.742850244252267 33.30484335810281 L -2.6208583317166636 33.30484335810281 Z" fill="none" transform="matrix(1,0,0,1,0,0)" fill-rule="nonzero" stroke-dasharray="none" stroke-miterlimit="10" stroke-linejoin="miter" stroke-linecap="butt" stroke-width="0.09693225069360198" stroke="#00a9a0"></path></g></g><g><path d=" M 0.3615 1.1099999999999999 Q 0.2655 1.1099999999999999 0.1965 1.0807499999999999 Q 0.1275 1.0514999999999999 0.09075 1.01325 Q 0.054 0.9749999999999999 0.054 0.948 Q 0.054 0.9359999999999999 0.06075 0.9224999999999999 Q 0.0675 0.9089999999999999 0.078 0.9007499999999999 Q 0.0885 0.8924999999999998 0.099 0.8924999999999998 Q 0.114 0.8924999999999998 0.12975 0.9112499999999999 Q 0.1455 0.9299999999999999 0.17175 0.95475 Q 0.198 0.9794999999999999 0.2415 0.9982499999999999 Q 0.28500000000000003 1.017 0.3555 1.017 Q 0.426 1.017 0.47625 0.9937499999999999 Q 0.5265 0.9704999999999999 0.55275 0.92475 Q 0.579 0.8789999999999999 0.579 0.8099999999999999 Q 0.579 0.738 0.552 0.6937499999999999 Q 0.525 0.6495 0.48075 0.6217499999999999 Q 0.4365 0.5939999999999999 0.384 0.5737499999999999 Q 0.3315 0.5534999999999999 0.27825 0.5332499999999999 Q 0.225 0.5129999999999999 0.18075 0.48224999999999996 Q 0.1365 0.4514999999999999 0.10875 0.4012499999999999 Q 0.081 0.35099999999999987 0.081 0.2729999999999999 Q 0.081 0.1904999999999999 0.111 0.1379999999999999 Q 0.14100000000000001 0.08549999999999991 0.18825 0.05549999999999988 Q 0.23550000000000001 0.025499999999999856 0.291 0.012749999999999817 Q 0.34650000000000003 0 0.399 0 Q 0.441 0 0.48525 0.006749999999999812 Q 0.5295 0.013499999999999845 0.5670000000000001 0.025499999999999856 Q 0.6045 0.03749999999999987 0.62775 0.053999999999999826 Q 0.651 0.07050000000000001 0.651 0.09149999999999991 Q 0.651 0.10199999999999987 0.64575 0.11474999999999991 Q 0.6405 0.12749999999999995 0.6315000000000001 0.13724999999999987 Q 0.6225 0.1469999999999999 0.6075 0.1469999999999999 Q 0.594 0.1469999999999999 0.5700000000000001 0.13274999999999992 Q 0.546 0.11849999999999994 0.50475 0.10424999999999995 Q 0.4635 0.08999999999999986 0.3975 0.08999999999999986 Q 0.3435 0.08999999999999986 0.29325 0.1057499999999999 Q 0.243 0.12149999999999994 0.2115 0.15899999999999992 Q 0.18 0.1964999999999999 0.18 0.2639999999999999 Q 0.18 0.32399999999999995 0.20775000000000002 0.3607499999999999 Q 0.23550000000000001 0.39749999999999985 0.27975 0.41999999999999993 Q 0.324 0.4424999999999999 0.3765 0.46124999999999994 Q 0.429 0.47999999999999987 0.48225 0.5032499999999999 Q 0.5355 0.5264999999999999 0.57975 0.5617499999999999 Q 0.624 0.5969999999999999 0.651 0.6539999999999999 Q 0.678 0.7109999999999999 0.678 0.8009999999999999 Q 0.678 0.9075 0.6375000000000001 0.9757499999999999 Q 0.597 1.0439999999999998 0.52575 1.077 Q 0.4545 1.1099999999999999 0.3615 1.1099999999999999 M 1.06952783203125 1.0995 Q 0.9540278320312501 1.0995 0.8925278320312501 1.047 Q 0.8310278320312501 0.9944999999999999 0.8310278320312501 0.8789999999999999 L 0.8310278320312501 0.0884999999999998 Q 0.8310278320312501 0.07199999999999984 0.8467778320312501 0.062249999999999917 Q 0.8625278320312502 0.05249999999999999 0.8790278320312501 0.05249999999999999 Q 0.8985278320312501 0.05249999999999999 0.9135278320312501 0.062249999999999917 Q 0.9285278320312501 0.07199999999999984 0.9285278320312501 0.0884999999999998 L 0.9285278320312501 0.3899999999999999 L 1.12352783203125 0.3899999999999999 Q 1.1385278320312502 0.3899999999999999 1.14752783203125 0.4019999999999999 Q 1.1565278320312502 0.4139999999999999 1.1565278320312502 0.4304999999999999 Q 1.1565278320312502 0.44699999999999995 1.14752783203125 0.45899999999999996 Q 1.1385278320312502 0.47099999999999986 1.12352783203125 0.47099999999999986 L 0.9285278320312501 0.47099999999999986 L 0.9285278320312501 0.8789999999999999 Q 0.9285278320312501 0.9524999999999999 0.9600278320312501 0.9817499999999999 Q 0.9915278320312502 1.011 1.06952783203125 1.011 L 1.11152783203125 1.011 Q 1.1325278320312502 1.011 1.1437778320312502 1.02375 Q 1.1550278320312501 1.0365 1.1550278320312501 1.0545 Q 1.1550278320312501 1.0725 1.1437778320312502 1.0859999999999999 Q 1.1325278320312502 1.0995 1.11152783203125 1.0995 L 1.06952783203125 1.0995 M 1.434002197265625 1.1099999999999999 Q 1.350002197265625 1.1099999999999999 1.290002197265625 1.06125 Q 1.230002197265625 1.0125 1.230002197265625 0.9119999999999999 Q 1.230002197265625 0.8294999999999999 1.2742521972656249 0.7852499999999999 Q 1.318502197265625 0.7409999999999999 1.397252197265625 0.7237499999999999 Q 1.476002197265625 0.7064999999999999 1.579502197265625 0.7064999999999999 L 1.6560021972656251 0.7064999999999999 L 1.6560021972656251 0.6704999999999999 Q 1.6560021972656251 0.6224999999999998 1.638752197265625 0.5752499999999999 Q 1.621502197265625 0.5279999999999999 1.583252197265625 0.49724999999999986 Q 1.545002197265625 0.4664999999999999 1.479002197265625 0.4664999999999999 Q 1.429502197265625 0.4664999999999999 1.398002197265625 0.47699999999999987 Q 1.366502197265625 0.48749999999999993 1.348502197265625 0.4987499999999999 Q 1.330502197265625 0.5099999999999999 1.318502197265625 0.5099999999999999 Q 1.300502197265625 0.5099999999999999 1.290002197265625 0.4919999999999999 Q 1.279502197265625 0.47399999999999987 1.279502197265625 0.4574999999999999 Q 1.279502197265625 0.43799999999999994 1.310252197265625 0.42074999999999996 Q 1.341002197265625 0.40349999999999986 1.388252197265625 0.3922499999999999 Q 1.435502197265625 0.3809999999999999 1.482002197265625 0.3809999999999999 Q 1.582502197265625 0.3809999999999999 1.641752197265625 0.4222499999999999 Q 1.701002197265625 0.4634999999999999 1.7272521972656252 0.5294999999999999 Q 1.753502197265625 0.5954999999999999 1.753502197265625 0.6704999999999999 L 1.753502197265625 1.0605 Q 1.753502197265625 1.077 1.740752197265625 1.08825 Q 1.728002197265625 1.0995 1.705502197265625 1.0995 Q 1.687502197265625 1.0995 1.674002197265625 1.08825 Q 1.660502197265625 1.077 1.660502197265625 1.0605 L 1.660502197265625 0.9944999999999999 Q 1.621502197265625 1.0379999999999998 1.566002197265625 1.0739999999999998 Q 1.510502197265625 1.1099999999999999 1.434002197265625 1.1099999999999999 M 1.458002197265625 1.0274999999999999 Q 1.507502197265625 1.0274999999999999 1.552502197265625 1.002 Q 1.5975021972656251 0.9764999999999999 1.626752197265625 0.9397499999999999 Q 1.6560021972656251 0.9029999999999999 1.6560021972656251 0.8699999999999999 L 1.6560021972656251 0.7739999999999999 L 1.593002197265625 0.7739999999999999 Q 1.525502197265625 0.7739999999999999 1.464752197265625 0.7822499999999999 Q 1.404002197265625 0.7905 1.365752197265625 0.8174999999999999 Q 1.3275021972656251 0.8444999999999999 1.3275021972656251 0.9029999999999999 Q 1.3275021972656251 0.9674999999999999 1.365752197265625 0.9974999999999999 Q 1.404002197265625 1.0274999999999999 1.458002197265625 1.0274999999999999 M 1.8974560546875 1.4475 Q 1.8779560546875 1.4475 1.8652060546875 1.4377499999999999 Q 1.8524560546875 1.428 1.8524560546875 1.404 Q 1.8524560546875 1.386 1.8592060546875 1.3725 Q 1.8659560546875 1.359 1.8824560546875 1.359 Q 1.9184560546875 1.359 1.9514560546875 1.3365 Q 1.9844560546875 1.3139999999999998 2.0129560546875 1.2727499999999998 Q 2.0414560546875 1.2315 2.0639560546875 1.1797499999999999 Q 2.0864560546875 1.128 2.0999560546875 1.0695 L 1.8554560546875 0.44099999999999995 Q 1.8509560546875 0.4334999999999999 1.8509560546875 0.4274999999999999 Q 1.8509560546875 0.4139999999999999 1.8607060546875 0.40349999999999986 Q 1.8704560546875 0.3929999999999999 1.8847060546875 0.3869999999999999 Q 1.8989560546875 0.3809999999999999 1.9109560546875 0.3809999999999999 Q 1.9229560546875 0.3809999999999999 1.9327060546875 0.38624999999999987 Q 1.9424560546875 0.39149999999999996 1.9454560546875 0.4019999999999999 L 2.1509560546875 0.954 L 2.3444560546875 0.4019999999999999 Q 2.3489560546875 0.39149999999999996 2.3579560546875 0.38624999999999987 Q 2.3669560546875 0.3809999999999999 2.3774560546875 0.3809999999999999 Q 2.3894560546875 0.3809999999999999 2.4037060546875 0.3869999999999999 Q 2.4179560546875 0.3929999999999999 2.4277060546875 0.40349999999999986 Q 2.4374560546875 0.4139999999999999 2.4374560546875 0.42899999999999994 Q 2.4374560546875 0.4364999999999999 2.4344560546875 0.44099999999999995 L 2.2019560546875 1.071 Q 2.1794560546875 1.131 2.1539560546875 1.1969999999999998 Q 2.1284560546874998 1.263 2.0947060546875 1.3192499999999998 Q 2.0609560546875 1.3755 2.0129560546875 1.4115 Q 1.9649560546875 1.4475 1.8974560546875 1.4475 M 2.92344873046875 1.0995 Q 2.90394873046875 1.0995 2.88894873046875 1.08975 Q 2.87394873046875 1.0799999999999998 2.87394873046875 1.0605 L 2.87394873046875 0.038999999999999924 Q 2.87394873046875 0.0239999999999998 2.88519873046875 0.014249999999999874 Q 2.89644873046875 0.0044999999999999485 2.91594873046875 0.0029999999999998916 L 3.19194873046875 0.0029999999999998916 Q 3.27894873046875 0.0029999999999998916 3.34944873046875 0.034499999999999975 Q 3.41994873046875 0.06599999999999984 3.46044873046875 0.13574999999999993 Q 3.50094873046875 0.2054999999999999 3.50094873046875 0.32099999999999995 L 3.50094873046875 0.33599999999999985 Q 3.50094873046875 0.45299999999999996 3.45969873046875 0.5227499999999999 Q 3.41844873046875 0.5924999999999999 3.34719873046875 0.6239999999999999 Q 3.27594873046875 0.6555 3.18894873046875 0.6555 L 2.97294873046875 0.6555 L 2.97294873046875 1.0605 Q 2.97294873046875 1.0799999999999998 2.95719873046875 1.08975 Q 2.9414487304687498 1.0995 2.92344873046875 1.0995 M 2.97294873046875 0.57 L 3.18894873046875 0.57 Q 3.28944873046875 0.57 3.34569873046875 0.5137499999999999 Q 3.40194873046875 0.4574999999999999 3.40194873046875 0.3404999999999999 L 3.40194873046875 0.3224999999999999 Q 3.40194873046875 0.2054999999999999 3.34569873046875 0.1499999999999999 Q 3.28944873046875 0.0944999999999998 3.18894873046875 0.0944999999999998 L 2.97294873046875 0.0944999999999998 L 2.97294873046875 0.57 M 3.86387841796875 1.1099999999999999 Q 3.78737841796875 1.1099999999999999 3.72287841796875 1.07025 Q 3.65837841796875 1.0305 3.61862841796875 0.9652499999999999 Q 3.57887841796875 0.8999999999999999 3.57887841796875 0.825 L 3.57887841796875 0.6615 Q 3.57887841796875 0.5864999999999999 3.61787841796875 0.5227499999999999 Q 3.65687841796875 0.45899999999999996 3.72137841796875 0.41999999999999993 Q 3.78587841796875 0.3809999999999999 3.86387841796875 0.3809999999999999 Q 3.94037841796875 0.3809999999999999 4.00562841796875 0.4192499999999999 Q 4.07087841796875 0.4574999999999999 4.1098784179687495 0.5205 Q 4.14887841796875 0.5834999999999999 4.14887841796875 0.6615 L 4.14887841796875 0.825 Q 4.14887841796875 0.8984999999999999 4.1098784179687495 0.9644999999999999 Q 4.07087841796875 1.0305 4.00562841796875 1.07025 Q 3.94037841796875 1.1099999999999999 3.86387841796875 1.1099999999999999 M 3.86387841796875 1.02 Q 3.91637841796875 1.02 3.95837841796875 0.99225 Q 4.00037841796875 0.9644999999999999 4.02587841796875 0.9195 Q 4.05137841796875 0.8744999999999999 4.05137841796875 0.825 L 4.05137841796875 0.6615 Q 4.05137841796875 0.6134999999999999 4.02662841796875 0.57 Q 4.00187841796875 0.5264999999999999 3.95912841796875 0.4987499999999999 Q 3.91637841796875 0.47099999999999986 3.86387841796875 0.47099999999999986 Q 3.8113784179687498 0.47099999999999986 3.76937841796875 0.4987499999999999 Q 3.72737841796875 0.5264999999999999 3.70187841796875 0.57 Q 3.67637841796875 0.6134999999999999 3.67637841796875 0.6615 L 3.67637841796875 0.825 Q 3.67637841796875 0.8744999999999999 3.70187841796875 0.9195 Q 3.72737841796875 0.9644999999999999 3.77012841796875 0.99225 Q 3.81287841796875 1.02 3.86387841796875 1.02 M 4.50286962890625 1.1099999999999999 Q 4.43236962890625 1.1099999999999999 4.37986962890625 1.0919999999999999 Q 4.32736962890625 1.0739999999999998 4.29736962890625 1.04925 Q 4.26736962890625 1.0245 4.26736962890625 1.002 Q 4.26736962890625 0.9914999999999999 4.27186962890625 0.9817499999999999 Q 4.27636962890625 0.972 4.28461962890625 0.9644999999999999 Q 4.29286962890625 0.9569999999999999 4.30186962890625 0.9569999999999999 Q 4.31836962890625 0.9569999999999999 4.33861962890625 0.97425 Q 4.35886962890625 0.9914999999999999 4.39561962890625 1.0094999999999998 Q 4.43236962890625 1.0274999999999999 4.49986962890625 1.0274999999999999 Q 4.58536962890625 1.0274999999999999 4.61986962890625 0.99525 Q 4.65436962890625 0.9629999999999999 4.65436962890625 0.9209999999999999 Q 4.65436962890625 0.8714999999999999 4.62811962890625 0.8437499999999999 Q 4.60186962890625 0.8159999999999998 4.55911962890625 0.8002499999999999 Q 4.51636962890625 0.7845 4.46911962890625 0.7717499999999999 Q 4.42186962890625 0.7589999999999999 4.37911962890625 0.7387499999999999 Q 4.33636962890625 0.7184999999999999 4.31011962890625 0.6824999999999999 Q 4.28386962890625 0.6464999999999999 4.28386962890625 0.585 Q 4.28386962890625 0.5369999999999999 4.30786962890625 0.4897499999999999 Q 4.33186962890625 0.4424999999999999 4.38361962890625 0.41174999999999995 Q 4.43536962890625 0.3809999999999999 4.52086962890625 0.3809999999999999 Q 4.57036962890625 0.3809999999999999 4.61686962890625 0.39149999999999996 Q 4.66336962890625 0.4019999999999999 4.69261962890625 0.4192499999999999 Q 4.72186962890625 0.4364999999999999 4.72186962890625 0.4544999999999999 Q 4.72186962890625 0.46199999999999986 4.71661962890625 0.47399999999999987 Q 4.71136962890625 0.4859999999999999 4.70236962890625 0.4957499999999999 Q 4.69336962890625 0.5055 4.68136962890625 0.5055 Q 4.66936962890625 0.5055 4.64911962890625 0.49424999999999986 Q 4.62886962890625 0.4829999999999999 4.59736962890625 0.47324999999999995 Q 4.56586962890625 0.4634999999999999 4.52236962890625 0.4634999999999999 Q 4.46836962890625 0.4634999999999999 4.43536962890625 0.4829999999999999 Q 4.40236962890625 0.5025 4.38736962890625 0.5287499999999999 Q 4.37236962890625 0.5549999999999999 4.37236962890625 0.5804999999999999 Q 4.37236962890625 0.6239999999999999 4.39936962890625 0.6464999999999999 Q 4.42636962890625 0.6689999999999999 4.46911962890625 0.6832499999999999 Q 4.51186962890625 0.6974999999999999 4.55911962890625 0.7102499999999999 Q 4.60636962890625 0.7229999999999999 4.64911962890625 0.7454999999999999 Q 4.69186962890625 0.7679999999999999 4.71811962890625 0.8085 Q 4.7443696289062505 0.849 4.7443696289062505 0.9164999999999999 Q 4.7443696289062505 1.005 4.68136962890625 1.0574999999999999 Q 4.61836962890625 1.1099999999999999 4.50286962890625 1.1099999999999999 M 4.939405517578125 0.17999999999999994 Q 4.912405517578125 0.17999999999999994 4.892905517578125 0.1612499999999999 Q 4.873405517578125 0.14249999999999985 4.873405517578125 0.11699999999999988 Q 4.873405517578125 0.09149999999999991 4.892905517578125 0.0734999999999999 Q 4.912405517578125 0.05549999999999988 4.939405517578125 0.05549999999999988 Q 4.966405517578125 0.05549999999999988 4.985905517578125 0.0734999999999999 Q 5.005405517578125 0.09149999999999991 5.005405517578125 0.11699999999999988 Q 5.005405517578125 0.14249999999999985 4.985905517578125 0.1612499999999999 Q 4.966405517578125 0.17999999999999994 4.939405517578125 0.17999999999999994 M 4.937905517578125 1.0995 Q 4.918405517578125 1.0995 4.904155517578125 1.0875 Q 4.889905517578125 1.0755 4.889905517578125 1.0605 L 4.889905517578125 0.42599999999999993 Q 4.889905517578125 0.40949999999999986 4.904155517578125 0.39974999999999994 Q 4.918405517578125 0.3899999999999999 4.937905517578125 0.3899999999999999 Q 4.958905517578125 0.3899999999999999 4.973155517578125 0.39974999999999994 Q 4.987405517578125 0.40949999999999986 4.987405517578125 0.42599999999999993 L 4.987405517578125 1.0605 Q 4.987405517578125 1.0755 4.973155517578125 1.0875 Q 4.958905517578125 1.0995 4.937905517578125 1.0995 M 5.4089443359375 1.0995 Q 5.2934443359375 1.0995 5.2319443359375 1.047 Q 5.1704443359375 0.9944999999999999 5.1704443359375 0.8789999999999999 L 5.1704443359375 0.0884999999999998 Q 5.1704443359375 0.07199999999999984 5.1861943359375 0.062249999999999917 Q 5.2019443359375 0.05249999999999999 5.2184443359375 0.05249999999999999 Q 5.2379443359375 0.05249999999999999 5.2529443359375 0.062249999999999917 Q 5.2679443359375 0.07199999999999984 5.2679443359375 0.0884999999999998 L 5.2679443359375 0.3899999999999999 L 5.4629443359375 0.3899999999999999 Q 5.4779443359375 0.3899999999999999 5.4869443359375 0.4019999999999999 Q 5.4959443359375 0.4139999999999999 5.4959443359375 0.4304999999999999 Q 5.4959443359375 0.44699999999999995 5.4869443359375 0.45899999999999996 Q 5.4779443359375 0.47099999999999986 5.4629443359375 0.47099999999999986 L 5.2679443359375 0.47099999999999986 L 5.2679443359375 0.8789999999999999 Q 5.2679443359375 0.9524999999999999 5.2994443359375 0.9817499999999999 Q 5.3309443359375 1.011 5.4089443359375 1.011 L 5.4509443359375 1.011 Q 5.4719443359375 1.011 5.4831943359375 1.02375 Q 5.4944443359375 1.0365 5.4944443359375 1.0545 Q 5.4944443359375 1.0725 5.4831943359375 1.0859999999999999 Q 5.4719443359375 1.0995 5.4509443359375 1.0995 L 5.4089443359375 1.0995 M 5.665418701171875 0.17999999999999994 Q 5.638418701171875 0.17999999999999994 5.618918701171875 0.1612499999999999 Q 5.599418701171875 0.14249999999999985 5.599418701171875 0.11699999999999988 Q 5.599418701171875 0.09149999999999991 5.618918701171875 0.0734999999999999 Q 5.638418701171875 0.05549999999999988 5.665418701171875 0.05549999999999988 Q 5.692418701171875 0.05549999999999988 5.711918701171875 0.0734999999999999 Q 5.731418701171875 0.09149999999999991 5.731418701171875 0.11699999999999988 Q 5.731418701171875 0.14249999999999985 5.711918701171875 0.1612499999999999 Q 5.692418701171875 0.17999999999999994 5.665418701171875 0.17999999999999994 M 5.663918701171875 1.0995 Q 5.644418701171875 1.0995 5.630168701171875 1.0875 Q 5.615918701171875 1.0755 5.615918701171875 1.0605 L 5.615918701171875 0.42599999999999993 Q 5.615918701171875 0.40949999999999986 5.630168701171875 0.39974999999999994 Q 5.644418701171875 0.3899999999999999 5.663918701171875 0.3899999999999999 Q 5.684918701171875 0.3899999999999999 5.699168701171875 0.39974999999999994 Q 5.713418701171875 0.40949999999999986 5.713418701171875 0.42599999999999993 L 5.713418701171875 1.0605 Q 5.713418701171875 1.0755 5.699168701171875 1.0875 Q 5.684918701171875 1.0995 5.663918701171875 1.0995 M 6.12145751953125 1.1115 Q 6.10495751953125 1.1115 6.09295751953125 1.1055 Q 6.08095751953125 1.0995 6.07645751953125 1.0875 L 5.83495751953125 0.4544999999999999 Q 5.83345751953125 0.4514999999999999 5.83120751953125 0.44399999999999995 Q 5.82895751953125 0.4364999999999999 5.82895751953125 0.43199999999999994 Q 5.82895751953125 0.41999999999999993 5.83795751953125 0.40949999999999986 Q 5.84695751953125 0.3989999999999999 5.86120751953125 0.3929999999999999 Q 5.87545751953125 0.3869999999999999 5.88745751953125 0.3869999999999999 Q 5.89945751953125 0.3869999999999999 5.90920751953125 0.3922499999999999 Q 5.91895751953125 0.39749999999999985 5.92345751953125 0.40949999999999986 L 6.12145751953125 0.9494999999999999 L 6.31945751953125 0.41549999999999987 Q 6.32245751953125 0.40349999999999986 6.32995751953125 0.3952499999999999 Q 6.33745751953125 0.3869999999999999 6.35395751953125 0.3869999999999999 Q 6.36595751953125 0.3869999999999999 6.37945751953125 0.3929999999999999 Q 6.39295751953125 0.3989999999999999 6.4034575195312495 0.40874999999999995 Q 6.41395751953125 0.41849999999999987 6.41395751953125 0.4304999999999999 Q 6.41395751953125 0.43799999999999994 6.41245751953125 0.44399999999999995 Q 6.41095751953125 0.44999999999999996 6.40795751953125 0.4544999999999999 L 6.16645751953125 1.0875 Q 6.16195751953125 1.0979999999999999 6.14920751953125 1.10475 Q 6.13645751953125 1.1115 6.12145751953125 1.1115 M 6.824967041015625 1.1099999999999999 Q 6.730467041015625 1.1099999999999999 6.657717041015625 1.0739999999999998 Q 6.584967041015625 1.0379999999999998 6.543717041015625 0.97425 Q 6.502467041015625 0.9104999999999999 6.502467041015625 0.825 L 6.502467041015625 0.6569999999999999 Q 6.502467041015625 0.582 6.541467041015625 0.5189999999999999 Q 6.580467041015625 0.45599999999999996 6.645717041015625 0.41849999999999987 Q 6.710967041015625 0.3809999999999999 6.788967041015625 0.3809999999999999 Q 6.863967041015625 0.3809999999999999 6.927717041015625 0.4162499999999999 Q 6.991467041015625 0.4514999999999999 7.030467041015625 0.5129999999999999 Q 7.069467041015625 0.5744999999999999 7.069467041015625 0.6539999999999999 Q 7.069467041015625 0.7124999999999999 7.049967041015625 0.73725 Q 7.030467041015625 0.7619999999999999 7.001217041015625 0.7679999999999999 Q 6.971967041015625 0.7739999999999999 6.938967041015625 0.7739999999999999 L 6.599967041015625 0.7739999999999999 L 6.599967041015625 0.8294999999999999 Q 6.599967041015625 0.9195 6.664467041015625 0.972 Q 6.728967041015625 1.0245 6.827967041015625 1.0245 Q 6.887967041015625 1.0245 6.920967041015625 1.0094999999999998 Q 6.953967041015625 0.9944999999999999 6.972717041015625 0.9794999999999999 Q 6.991467041015625 0.9644999999999999 7.007967041015625 0.9644999999999999 Q 7.019967041015625 0.9644999999999999 7.029717041015625 0.9727499999999999 Q 7.039467041015625 0.9809999999999999 7.044717041015625 0.9914999999999999 Q 7.049967041015625 1.002 7.049967041015625 1.011 Q 7.049967041015625 1.0274999999999999 7.022967041015625 1.0514999999999999 Q 6.995967041015625 1.0755 6.944967041015625 1.0927499999999999 Q 6.893967041015625 1.1099999999999999 6.824967041015625 1.1099999999999999 M 6.599967041015625 0.702 L 6.899967041015625 0.702 Q 6.944967041015625 0.702 6.959967041015625 0.6922499999999999 Q 6.974967041015625 0.6824999999999999 6.974967041015625 0.6509999999999999 Q 6.974967041015625 0.603 6.951717041015625 0.5594999999999999 Q 6.928467041015625 0.5159999999999999 6.885717041015625 0.4889999999999999 Q 6.842967041015625 0.46199999999999986 6.787467041015625 0.46199999999999986 Q 6.736467041015625 0.46199999999999986 6.693717041015625 0.4867499999999999 Q 6.650967041015625 0.5115 6.625467041015625 0.55275 Q 6.599967041015625 0.5939999999999999 6.599967041015625 0.6449999999999999 L 6.599967041015625 0.702" fill="#ffffff" fill-rule="nonzero"></path></g><g></g></g><defs><clipPath id="SvgjsClipPath22768"><path d=" M 1.3449308409106733 -6.4178145311702215 h 4.4321170779442784 v 6.1678145311702215 h -4.4321170779442784 Z"></path></clipPath><clipPath id="a7102f7da-c13e-4571-a173-36adc8ad35d2da4323a9-4aa3-4b76-af34-ccfce3999f24"><path d=" M 1.3449308409106733 -6.417799111633893 L 5.776964139374236 -6.417799111633893 L 5.776964139374236 -0.25 L 1.3449308409106733 -0.25 Z"></path></clipPath><clipPath id="b7102f7da-c13e-4571-a173-36adc8ad35d2da4323a9-4aa3-4b76-af34-ccfce3999f24"><path d=" M 1.3449308409106733 -6.417799111633893 L 5.776964139374236 -6.417799111633893 L 5.776964139374236 -0.25 L 1.3449308409106733 -0.25 Z"></path></clipPath></defs></svg>